<svg version="1.1" xmlns="http://www.w3.org/2000/svg" xmlns:xlink="http://www.w3.org/1999/xlink" width="72.69019" height="83.87498" viewBox="0,0,72.69019,83.87498"><g transform="translate(-192.52902,-122.4003)"><g data-paper-data="{&quot;isPaintingLayer&quot;:true}" fill-rule="nonzero" stroke="none" stroke-width="1" stroke-linecap="butt" stroke-linejoin="miter" stroke-miterlimit="10" stroke-dasharray="" stroke-dashoffset="0" style="mix-blend-mode: normal"><g><g fill="#ffffff"><path d="M226.52239,130.37388c-0.7865,-0.20351 -1.23555,-1.09709 -1.00298,-1.99586c0.23256,-0.89878 1.05867,-1.4624 1.84516,-1.25889c0.7865,0.20351 1.23555,1.09709 1.00298,1.99586c-0.23256,0.89878 -1.05867,1.4624 -1.84516,1.25889z"/><path d="M220.49102,138.089c0.095,-1.104 0.229,-2.212 0.407,-3.313c0.081,0.005 0.162,0.012 0.245,0.033c0.785,0.204 1.234,1.097 1.001,1.996c-0.214,0.826 -0.928,1.361 -1.653,1.284z"/><path d="M222.80236,141.81519c-0.7865,-0.20351 -1.23555,-1.09709 -1.00298,-1.99587c0.23256,-0.89878 1.05867,-1.4624 1.84517,-1.25889c0.7865,0.20351 1.23555,1.09708 1.00298,1.99586c-0.23256,0.89878 -1.05867,1.46241 -1.84517,1.2589z"/><path d="M220.80802,147.004c-0.146,-0.04 -0.275,-0.107 -0.396,-0.188c-0.05,-0.863 -0.089,-1.755 -0.107,-2.673c0.364,-0.355 0.863,-0.521 1.346,-0.396c0.786,0.205 1.235,1.098 1.001,1.997c-0.232,0.899 -1.058,1.462 -1.844,1.26z"/><path d="M222.9985,155.75506c-0.78657,-0.20343 -1.23577,-1.09701 -1.0033,-1.99588c0.23247,-0.89887 1.05857,-1.46264 1.84515,-1.25921c0.78657,0.20343 1.23577,1.09702 1.0033,1.99589c-0.23247,0.89887 -1.05856,1.46263 -1.84514,1.2592z"/><path d="M224.22704,150.99362c-0.78596,-0.20337 -1.23447,-1.09727 -1.00177,-1.99658c0.2327,-0.89931 1.05849,-1.46348 1.84445,-1.26011c0.78596,0.20337 1.23446,1.09727 1.00176,1.99658c-0.2327,0.89931 -1.05849,1.46348 -1.84445,1.26011z"/><path d="M221.33625,160.91234c-0.78703,-0.20373 -1.23633,-1.09791 -1.00353,-1.99722c0.2328,-0.89931 1.05953,-1.46319 1.84655,-1.25946c0.78703,0.20373 1.23633,1.09791 1.00353,1.99722c-0.2328,0.89931 -1.05952,1.46319 -1.84655,1.25946z"/><path d="M214.30902,156.609c0.072,-0.283 0.211,-0.529 0.382,-0.731c0.67,-0.156 1.392,-0.181 2.117,-0.118c0.35,0.393 0.503,0.985 0.348,1.587c-0.233,0.898 -1.059,1.463 -1.846,1.26c-0.786,-0.204 -1.235,-1.098 -1.001,-1.998z"/><path d="M215.41142,169.54372c-0.78551,-0.20307 -1.23379,-1.0968 -1.00128,-1.99621c0.23252,-0.89941 1.05778,-1.46389 1.84329,-1.26082c0.78551,0.20307 1.2338,1.0968 1.00128,1.9962c-0.23252,0.89941 -1.05779,1.46389 -1.8433,1.26082z"/><path d="M222.05437,131.69545c0.23256,-0.89878 1.05867,-1.4624 1.84516,-1.25889c0.7865,0.20351 1.23555,1.09709 1.00298,1.99586c-0.23256,0.89878 -1.05867,1.4624 -1.84516,1.25889c-0.7865,-0.20351 -1.23555,-1.09708 -1.00298,-1.99586z"/><path d="M257.42302,186.168c-0.152,1.051 -0.307,1.916 -0.456,2.573c-0.329,0.219 -0.721,0.305 -1.105,0.205c-0.785,-0.204 -1.236,-1.098 -1.003,-1.998c0.233,-0.901 1.062,-1.462 1.846,-1.26c0.293,0.074 0.539,0.248 0.718,0.48z"/><path d="M254.76602,190.541c-0.99,0.207 -1.975,0.406 -2.946,0.588c-0.012,-0.2 0,-0.403 0.054,-0.614c0.233,-0.899 1.059,-1.461 1.845,-1.258c0.575,0.148 0.967,0.666 1.047,1.284z"/><path d="M249.12506,189.8053c-0.78543,-0.20323 -1.2335,-1.09702 -1.0008,-1.99633c0.2327,-0.89931 1.05806,-1.46359 1.84348,-1.26036c0.78543,0.20323 1.23349,1.09702 1.00079,1.99633c-0.2327,0.89931 -1.05805,1.46359 -1.84348,1.26036z"/><path d="M245.22145,191.89153c-0.78665,-0.20294 -1.23637,-1.09621 -1.00446,-1.99517c0.23191,-0.89896 1.05763,-1.4632 1.84429,-1.26026c0.78665,0.20294 1.23637,1.09621 1.00446,1.99517c-0.23191,0.89896 -1.05763,1.4632 -1.84429,1.26026z"/><path d="M240.36195,191.37963c-0.78764,-0.20354 -1.23774,-1.09765 -1.00532,-1.99706c0.23242,-0.89941 1.05935,-1.46351 1.847,-1.25997c0.78764,0.20354 1.23774,1.09766 1.00532,1.99706c-0.23242,0.89941 -1.05935,1.4635 -1.84699,1.25996z"/><path d="M238.51902,192.642c-0.017,0.064 -0.044,0.123 -0.066,0.182c-0.931,0.059 -1.842,0.098 -2.746,0.128c-0.108,-0.316 -0.131,-0.681 -0.037,-1.045c0.233,-0.899 1.059,-1.465 1.846,-1.261c0.786,0.203 1.235,1.095 1.003,1.996z"/><path d="M232.53144,192.70937c-0.78596,-0.20329 -1.23466,-1.09669 -1.00218,-1.99546c0.23247,-0.89878 1.05807,-1.46258 1.84403,-1.25929c0.78596,0.20329 1.23466,1.09669 1.00218,1.99546c-0.23247,0.89878 -1.05807,1.46258 -1.84403,1.25929z"/><path d="M228.79402,192.483c-0.041,0.159 -0.107,0.303 -0.18,0.438c-0.902,-0.043 -1.784,-0.107 -2.652,-0.179c-0.092,-0.306 -0.107,-0.649 -0.016,-0.995c0.232,-0.901 1.058,-1.465 1.845,-1.262c0.786,0.203 1.234,1.098 1.003,1.998z"/><path d="M222.69536,192.14849c-0.7865,-0.20359 -1.23525,-1.0981 -1.00232,-1.99795c0.23293,-0.89984 1.05934,-1.46427 1.84584,-1.26068c0.7865,0.20359 1.23524,1.0981 1.00231,1.99795c-0.23293,0.89984 -1.05934,1.46427 -1.84583,1.26068z"/><path d="M217.92166,190.04154c-0.78596,-0.20345 -1.2345,-1.09699 -1.00185,-1.99576c0.23265,-0.89878 1.0584,-1.46245 1.84436,-1.25899c0.78596,0.20345 1.23451,1.09699 1.00185,1.99576c-0.23265,0.89878 -1.05841,1.46245 -1.84437,1.25899z"/><path d="M212.50502,190.079c0.468,0.16 0.951,0.311 1.44,0.46c-0.231,0.069 -0.474,0.087 -0.716,0.024c-0.295,-0.075 -0.542,-0.249 -0.724,-0.484z"/><path d="M213.94502,190.54c-0.488,-0.149 -0.971,-0.3 -1.44,-0.46c-0.303,-0.39 -0.424,-0.95 -0.278,-1.512c0.233,-0.9 1.058,-1.462 1.844,-1.26c0.787,0.203 1.235,1.098 1.003,1.995c-0.161,0.624 -0.609,1.078 -1.129,1.237z"/><path d="M209.23802,188.787c-0.001,0.007 -0.005,0.012 -0.006,0.019c-0.919,-0.407 -1.783,-0.845 -2.599,-1.301c0.362,-0.564 0.993,-0.871 1.603,-0.714c0.786,0.204 1.236,1.098 1.002,1.996z"/><path d="M206.14098,186.49569c-0.78657,-0.20318 -1.236,-1.09657 -1.0038,-1.99544c0.23219,-0.89887 1.05806,-1.46283 1.84464,-1.25965c0.78657,0.20318 1.236,1.09657 1.0038,1.99544c-0.23219,0.89887 -1.05806,1.46284 -1.84464,1.25965z"/><path d="M203.19968,182.76365c-0.7865,-0.20351 -1.23555,-1.09709 -1.00298,-1.99586c0.23256,-0.89878 1.05867,-1.4624 1.84517,-1.25889c0.7865,0.20351 1.23555,1.09708 1.00298,1.99586c-0.23256,0.89878 -1.05867,1.4624 -1.84517,1.25889z"/><path d="M201.27602,183.48c-0.612,-0.641 -1.134,-1.307 -1.601,-1.988c0.194,-0.039 0.395,-0.039 0.595,0.014c0.78,0.201 1.226,1.082 1.006,1.974z"/></g><path d="M202.86802,171.881c2.463,-4.307 14.569,-0.943 14.569,-0.943c0,0 -2.888,-6.452 -0.359,-9.52c2.53,-3.068 9.086,0.117 9.086,0.117c0,0 -7.375,-31.848 8.908,-38.626c7.328,-3.051 13.963,8.009 17.214,22.811c4.089,18.612 3.701,42.354 2.445,42.559c-34.205,5.536 -59.398,-3.214 -51.863,-16.398z" fill="#dbdadf"/><path d="M244.72302,133.027c1.978,5.502 -9.858,9.778 -11.103,6.604c-1.341,-3.454 -3.419,-11.936 2.468,-14.237c5.979,-2.337 7.454,4.354 8.635,7.633z" fill="#ffd100"/><path d="M235.95202,145.966c0.829,-3.119 6.116,-7.173 10.246,-3.557c4.424,3.874 5.073,20.662 5.423,45.312c-5.19,-13.499 -18.969,-30.707 -15.669,-41.755z" fill="#ffff00"/><path d="M228.24902,136.278c4.229,-2.505 6.699,26.539 12.314,39.653c-12.953,-7.819 -17.367,-36.663 -12.314,-39.653z" fill="#d40000"/><path d="M241.28602,176.488c2.619,-2.027 4.449,7.976 7.367,10.961c-6.848,-2.887 -10.487,-8.543 -7.367,-10.961z" fill="#4b00ff"/><path d="M224.41502,172.461c-2.405,0.394 -4.406,-0.741 -5.821,-3.122c-1.208,-2.028 -0.428,-5.445 1.433,-6.461c2.419,-1.319 5.841,0.623 6.842,4.105c0.759,2.645 -0.727,5.195 -2.454,5.478z" fill="#00ae00"/><path d="M226.27702,172.855c5.312,-6.442 8.068,8.663 17.947,14.937c-8.033,-0.837 -23.009,-8.806 -17.947,-14.937z" fill="#8900ff"/><path d="M216.07902,180.385c2.855,-8.744 13.1,5.994 22.482,7.125c-7.494,1.219 -25.097,0.882 -22.482,-7.125z" fill="#ffd100"/><path d="M204.74402,173.857c1.27,-2.964 7.342,-2.69 9.11,-1.241c3.531,2.931 -0.713,10.891 -4.864,9.16c-3.918,-1.631 -6.16,-3.452 -4.246,-7.919z" fill="#4b00ff"/></g><g><path d="M253.5528,199.09116c-3.18548,2.10073 -4.17304,5.14117 -7.57382,6.63111c-3.07409,1.34566 -6.43375,0.21531 -7.98126,-3.17053c-1.48621,-3.24454 -1.18119,-6.60794 0.89561,-9.41887c2.62703,-3.55703 5.21144,-4.44442 8.87762,-6.24611c3.39929,-1.65815 5.43572,-2.33023 9.04134,-3.26622c3.33873,-0.86571 7.28899,-0.07326 8.14423,3.8441c0.81487,3.67739 -0.26465,7.78464 -3.25799,9.22749c-2.84981,1.36585 -5.37591,0.5749 -8.14573,2.39901z" fill="#d8fbfb"/><path d="M258.93768,184.46159c-0.51808,3.99362 0.72965,6.40086 2.6203,9.75977c0.34688,0.61452 -0.43435,1.22754 -0.77974,0.61153c-1.97812,-3.51442 -2.64347,-6.24087 -2.10147,-10.4199c0.02691,-0.20708 0.28633,-0.15924 0.26091,0.04859z" fill="#3b2763"/><path d="M252.83436,185.63307c-0.81444,2.42891 -0.59741,4.48755 0.13241,6.50562c0.55708,1.54042 1.41294,3.05721 2.33687,4.697c0.32371,0.5734 -0.40594,1.14381 -0.73114,0.57116c-2.22707,-3.95176 -3.42545,-7.3944 -1.92728,-11.86125c0.05009,-0.14952 0.23998,-0.06055 0.18914,0.08747z" fill="#3b2763"/><path d="M246.16811,189.53548c-0.6033,4.28294 0.48219,7.68297 3.36864,10.23748c0.53154,0.47173 -0.06728,1.41294 -0.59957,0.94196c-3.13913,-2.77879 -3.9682,-6.62962 -3.31257,-11.28635c0.06205,-0.42762 0.60405,-0.31997 0.5435,0.10691z" fill="#3b2763"/><path d="M238.64961,196.35275c0.85524,4.03549 3.72225,6.09285 7.41758,7.17237c0.47472,0.14055 0.29605,0.98009 -0.17419,0.83879c-3.88223,-1.13185 -7.12901,-3.18548 -7.68073,-7.81903c-0.09195,-0.76927 0.23923,-1.12437 0.43734,-0.19213z" fill="#3b2763"/></g><g><g fill="#ffffff"><path d="M193.35702,180.531c-0.337,0.553 -0.609,1.181 -0.802,1.893c-0.014,-0.099 -0.026,-0.199 -0.026,-0.303c0,-0.695 0.338,-1.291 0.828,-1.59z"/><path d="M223.46902,125.819c0,-0.99356 0.68277,-1.799 1.525,-1.799c0.84223,0 1.525,0.80544 1.525,1.799c0,0.99356 -0.68277,1.799 -1.525,1.799c-0.84223,0 -1.525,-0.80544 -1.525,-1.799z"/><path d="M246.56502,189.449c0,-0.99411 0.68277,-1.8 1.525,-1.8c0.84223,0 1.525,0.80589 1.525,1.8c0,0.99411 -0.68277,1.8 -1.525,1.8c-0.84223,0 -1.525,-0.80588 -1.525,-1.8z"/><path d="M215.29802,198.061c0,-0.99356 0.68277,-1.799 1.525,-1.799c0.84223,0 1.525,0.80544 1.525,1.799c0,0.99356 -0.68277,1.799 -1.525,1.799c-0.84223,0 -1.525,-0.80544 -1.525,-1.799z"/><path d="M211.39502,201.352c0.513,0.04 1.037,0.068 1.566,0.089c-0.213,0.135 -0.454,0.219 -0.713,0.219c-0.316,0 -0.609,-0.113 -0.853,-0.308z"/><path d="M207.78202,200.889c0,0.007 -0.002,0.014 -0.002,0.021c-1.029,-0.177 -2.009,-0.397 -2.947,-0.652c0.216,-0.681 0.77,-1.168 1.423,-1.168c0.842,0 1.525,0.806 1.526,1.799z"/><path d="M198.62902,194.462c0,-0.99356 0.68277,-1.799 1.525,-1.799c0.84223,0 1.525,0.80544 1.525,1.799c0,0.99356 -0.68277,1.799 -1.525,1.799c-0.84223,0 -1.525,-0.80544 -1.525,-1.799z"/><path d="M198.40902,197.524c-0.78,-0.499 -1.478,-1.05 -2.123,-1.631c0.184,-0.093 0.387,-0.146 0.6,-0.146c0.836,0 1.513,0.794 1.523,1.777z"/></g><path d="M196.99502,185.077c1.353,-5.125 14.381,-4.884 14.381,-4.884c0,0 -4.576,-5.912 -2.833,-9.769c1.743,-3.858 9.152,-2.314 9.152,-2.314c0,0 -15.676,-31.03 -1.09,-42.419c6.563,-5.126 16.097,4.556 23.205,19.024c8.939,18.192 14.715,42.902 13.508,43.449c-32.9,14.91 -60.463,12.597 -56.323,-3.087z" fill="#dbdadf"/><path d="M228.92002,133.59c3.415,5.171 -7.355,12.775 -9.43,9.82c-2.244,-3.219 -6.532,-11.451 -1.22,-15.415c5.396,-4.026 8.614,2.512 10.65,5.595z" fill="#ffd100"/><path d="M223.47702,149.349c0.021,-3.453 4.277,-9.073 9.362,-6.433c5.446,2.828 10.459,20.052 17.212,45.504c-8.715,-12.598 -27.018,-26.737 -26.574,-39.071z" fill="#ffff00"/><path d="M213.22802,141.374c3.595,-3.729 13.618,25.708 22.66,37.792c-15.034,-4.629 -26.956,-33.338 -22.66,-37.792z" fill="#d40000"/><path d="M236.76002,179.55c2.102,-2.802 6.538,7.074 10.241,9.386c-7.626,-1.159 -12.747,-6.043 -10.241,-9.386z" fill="#4b00ff"/><path d="M218.77602,179.901c-2.312,1.053 -4.615,0.414 -6.655,-1.674c-1.739,-1.779 -1.843,-5.53 -0.239,-7.081c2.086,-2.015 6.025,-0.92 7.935,2.421c1.449,2.536 0.619,5.577 -1.041,6.334z" fill="#00ae00"/><path d="M220.74702,179.81c3.66,-8.101 10.349,6.813 21.898,10.667c-8.282,1.287 -25.386,-2.956 -21.898,-10.667z" fill="#8900ff"/><path d="M212.46602,190.35c0.594,-9.83 14.707,2.698 24.419,1.353c-7.206,3.274 -24.965,7.643 -24.419,-1.353z" fill="#ffd100"/><path d="M199.39102,186.621c0.506,-3.413 6.673,-4.756 8.824,-3.729c4.305,2.09 2.113,11.48 -2.504,10.797c-4.358,-0.641 -7.082,-1.925 -6.32,-7.068z" fill="#4b00ff"/></g></g></g></svg>