<svg version="1.1" xmlns="http://www.w3.org/2000/svg" xmlns:xlink="http://www.w3.org/1999/xlink" width="73.21929" height="89.84474" viewBox="0,0,73.21929,89.84474"><g transform="translate(-191.99992,-116.43054)"><g data-paper-data="{&quot;isPaintingLayer&quot;:true}" fill-rule="nonzero" stroke="none" stroke-width="1" stroke-linecap="butt" stroke-linejoin="miter" stroke-miterlimit="10" stroke-dasharray="" stroke-dashoffset="0" style="mix-blend-mode: normal"><g><path d="M199.29902,168.48c3.665,-6.483 13.733,-1.904 13.733,-1.904c0,0 -2.889,-6.456 -0.359,-9.521c2.531,-3.067 9.086,0.117 9.086,0.117c0,0 -6.814,-30.147 8.908,-38.628c14.747,-7.953 23.229,7.768 26.312,26.653c3.353,20.528 0.591,44.742 -0.574,45.003c-41.692,9.305 -65.913,-6.138 -57.106,-21.72z" fill="#5ff5fe"/><g fill="#ffffff"><path d="M234.31702,117.02c-0.537,0.159 -1.083,0.355 -1.639,0.583c0.37,-0.504 0.965,-0.769 1.541,-0.621c0.034,0.01 0.064,0.027 0.098,0.038z"/><path d="M232.37402,118.243c0.062,-0.241 0.169,-0.454 0.304,-0.639c0.556,-0.228 1.102,-0.425 1.639,-0.583c0.722,0.251 1.126,1.099 0.904,1.958c-0.233,0.9 -1.059,1.463 -1.845,1.259c-0.787,-0.202 -1.235,-1.096 -1.002,-1.995z"/><path d="M231.64666,121.0349c0.78711,0.20356 1.23685,1.09683 1.00452,1.99517c-0.23233,0.89834 -1.05875,1.46155 -1.84586,1.25799c-0.78711,-0.20356 -1.23685,-1.09683 -1.00452,-1.99516c0.23233,-0.89834 1.05875,-1.46155 1.84586,-1.25799z"/><path d="M227.57772,122.0877c0.78657,0.20334 1.23573,1.0973 1.00321,1.9967c-0.23252,0.89941 -1.05865,1.46367 -1.84522,1.26032c-0.78657,-0.20334 -1.23574,-1.0973 -1.00322,-1.9967c0.23252,-0.89941 1.05866,-1.46367 1.84523,-1.26032z"/><path d="M226.52239,130.37388c-0.7865,-0.20351 -1.23555,-1.09709 -1.00298,-1.99586c0.23256,-0.89878 1.05867,-1.4624 1.84516,-1.25889c0.7865,0.20351 1.23555,1.09709 1.00298,1.99586c-0.23256,0.89878 -1.05867,1.4624 -1.84516,1.25889z"/><path d="M220.49102,138.089c0.095,-1.104 0.229,-2.212 0.407,-3.313c0.081,0.005 0.162,0.012 0.245,0.033c0.785,0.204 1.234,1.097 1.001,1.996c-0.214,0.826 -0.928,1.361 -1.653,1.284z"/><path d="M222.80236,141.81519c-0.7865,-0.20351 -1.23555,-1.09709 -1.00298,-1.99587c0.23256,-0.89878 1.05867,-1.4624 1.84517,-1.25889c0.7865,0.20351 1.23555,1.09708 1.00298,1.99586c-0.23256,0.89878 -1.05867,1.46241 -1.84517,1.2589z"/><path d="M220.80802,147.004c-0.146,-0.04 -0.275,-0.107 -0.396,-0.188c-0.05,-0.863 -0.089,-1.755 -0.107,-2.673c0.364,-0.355 0.863,-0.521 1.346,-0.396c0.786,0.205 1.235,1.098 1.001,1.997c-0.232,0.899 -1.058,1.462 -1.844,1.26z"/><path d="M222.9985,155.75506c-0.78657,-0.20343 -1.23577,-1.09701 -1.0033,-1.99588c0.23247,-0.89887 1.05857,-1.46264 1.84515,-1.25921c0.78657,0.20343 1.23577,1.09702 1.0033,1.99589c-0.23247,0.89887 -1.05856,1.46263 -1.84514,1.2592z"/><path d="M224.22704,150.99362c-0.78596,-0.20337 -1.23447,-1.09727 -1.00177,-1.99658c0.2327,-0.89931 1.05849,-1.46348 1.84445,-1.26011c0.78596,0.20337 1.23446,1.09727 1.00176,1.99658c-0.2327,0.89931 -1.05849,1.46348 -1.84445,1.26011z"/><path d="M221.33625,160.91234c-0.78703,-0.20373 -1.23633,-1.09791 -1.00353,-1.99722c0.2328,-0.89931 1.05953,-1.46319 1.84655,-1.25946c0.78703,0.20373 1.23633,1.09791 1.00353,1.99722c-0.2328,0.89931 -1.05952,1.46319 -1.84655,1.25946z"/><path d="M214.30902,156.609c0.072,-0.283 0.211,-0.529 0.382,-0.731c0.67,-0.156 1.392,-0.181 2.117,-0.118c0.35,0.393 0.503,0.985 0.348,1.587c-0.233,0.898 -1.059,1.463 -1.846,1.26c-0.786,-0.204 -1.235,-1.098 -1.001,-1.998z"/><path d="M213.98754,163.72364c-0.7865,-0.20351 -1.23543,-1.09752 -1.00274,-1.99683c0.2327,-0.89931 1.05892,-1.46337 1.84542,-1.25986c0.7865,0.20351 1.23543,1.09752 1.00274,1.99683c-0.2327,0.89931 -1.05892,1.46337 -1.84542,1.25986z"/><path d="M215.41142,169.54372c-0.78551,-0.20307 -1.23379,-1.0968 -1.00128,-1.99621c0.23252,-0.89941 1.05778,-1.46389 1.84329,-1.26082c0.78551,0.20307 1.2338,1.0968 1.00128,1.9962c-0.23252,0.89941 -1.05779,1.46389 -1.8433,1.26082z"/><path d="M208.85402,166.361c0.101,-0.39 0.317,-0.711 0.59,-0.94c0.859,0.193 1.622,0.423 2.221,0.628c0.109,0.319 0.132,0.681 0.037,1.049c-0.234,0.898 -1.058,1.463 -1.845,1.259c-0.786,-0.204 -1.235,-1.097 -1.003,-1.996z"/><path d="M204.40295,168.0639c0.23237,-0.89887 1.0584,-1.4627 1.84498,-1.25935c0.78657,0.20335 1.23584,1.09687 1.00347,1.99573c-0.23237,0.89887 -1.0584,1.4627 -1.84498,1.25935c-0.78657,-0.20335 -1.23584,-1.09687 -1.00347,-1.99573z"/><path d="M200.53502,166.89c-0.444,0.42 -0.845,0.923 -1.192,1.52c0.011,-0.093 0.023,-0.187 0.047,-0.281c0.163,-0.629 0.618,-1.085 1.145,-1.239z"/><path d="M199.34302,168.41c0.347,-0.598 0.748,-1.101 1.192,-1.52c0.226,-0.064 0.464,-0.08 0.7,-0.018c0.786,0.203 1.234,1.096 1.002,1.994c-0.231,0.898 -1.057,1.461 -1.844,1.258c-0.705,-0.183 -1.134,-0.918 -1.05,-1.714z"/><path d="M200.59294,175.63262c-0.78596,-0.20337 -1.2347,-1.0964 -1.00227,-1.99464c0.23243,-0.89824 1.05799,-1.46155 1.84395,-1.25817c0.78596,0.20337 1.23469,1.09641 1.00226,1.99464c-0.23243,0.89824 -1.05799,1.46154 -1.84394,1.25817z"/><path d="M222.05437,131.69545c0.23256,-0.89878 1.05867,-1.4624 1.84516,-1.25889c0.7865,0.20351 1.23555,1.09709 1.00298,1.99586c-0.23256,0.89878 -1.05867,1.4624 -1.84516,1.25889c-0.7865,-0.20351 -1.23555,-1.09708 -1.00298,-1.99586z"/><path d="M237.06506,123.17382c-0.78711,-0.20349 -1.23681,-1.09712 -1.00444,-1.99599c0.23237,-0.89887 1.05883,-1.46259 1.84595,-1.25911c0.78711,0.20349 1.23681,1.09712 1.00444,1.99599c-0.23237,0.89887 -1.05883,1.46259 -1.84595,1.25911z"/><path d="M242.38166,117.72599c0.78604,0.20297 1.23499,1.09661 1.00276,1.99602c-0.23224,0.89941 -1.05771,1.46398 -1.84375,1.26101c-0.78604,-0.20297 -1.23499,-1.0966 -1.00276,-1.99601c0.23224,-0.89941 1.05771,-1.46398 1.84375,-1.26102z"/><path d="M242.4552,126.67923c-0.78588,-0.20377 -1.23406,-1.0975 -1.00103,-1.99618c0.23302,-0.89868 1.05901,-1.46201 1.84489,-1.25824c0.78588,0.20377 1.23406,1.0975 1.00103,1.99618c-0.23302,0.89868 -1.05901,1.46201 -1.84489,1.25824z"/><path d="M246.67676,125.04446c0.23228,-0.89887 1.05823,-1.46277 1.8448,-1.2595c0.78657,0.20327 1.23593,1.09672 1.00364,1.99559c-0.23228,0.89887 -1.05823,1.46277 -1.84481,1.2595c-0.78657,-0.20327 -1.23592,-1.09672 -1.00364,-1.99559z"/><path d="M248.81367,132.29888c-0.78642,-0.20376 -1.23506,-1.09789 -1.00208,-1.99711c0.23298,-0.89921 1.05936,-1.463 1.84578,-1.25924c0.78642,0.20376 1.23506,1.09788 1.00208,1.9971c-0.23298,0.89921 -1.05936,1.46301 -1.84577,1.25925z"/><path d="M252.88929,132.47841c0.78588,0.2037 1.23424,1.09691 1.00145,1.99506c-0.2328,0.89815 -1.05859,1.46111 -1.84447,1.25742c-0.78588,-0.2037 -1.23425,-1.09691 -1.00145,-1.99506c0.2328,-0.89815 1.05859,-1.46112 1.84447,-1.25742z"/><path d="M251.06858,139.94967c-0.78596,-0.20337 -1.23458,-1.09683 -1.00202,-1.99561c0.23256,-0.89878 1.05824,-1.46251 1.8442,-1.25914c0.78596,0.20337 1.23458,1.09683 1.00202,1.99561c-0.23256,0.89878 -1.05824,1.46251 -1.8442,1.25914z"/><path d="M254.62094,140.87051c0.78497,0.20301 1.23287,1.09627 1.00039,1.99514c-0.23247,0.89887 -1.05727,1.46297 -1.84224,1.25995c-0.78497,-0.20301 -1.23287,-1.09626 -1.00039,-1.99513c0.23247,-0.89887 1.05727,-1.46297 1.84224,-1.25996z"/><path d="M256.87102,144.566c0.036,0.211 0.075,0.421 0.108,0.631c0.142,0.861 0.267,1.73 0.387,2.602c-0.239,0.078 -0.493,0.099 -0.743,0.034c-0.786,-0.204 -1.235,-1.098 -1.004,-1.996c0.175,-0.671 0.68,-1.154 1.252,-1.271z"/><path d="M251.83445,150.81031c0.23261,-0.89931 1.05832,-1.46355 1.84428,-1.26026c0.78596,0.20329 1.23454,1.09712 1.00194,1.99643c-0.23261,0.89931 -1.05832,1.46355 -1.84428,1.26026c-0.78596,-0.20329 -1.23454,-1.09712 -1.00194,-1.99643z"/><path d="M256.53812,152.77787c0.78658,0.20335 1.23584,1.09687 1.00347,1.99573c-0.23237,0.89887 -1.0584,1.4627 -1.84498,1.25935c-0.78657,-0.20335 -1.23584,-1.09687 -1.00347,-1.99573c0.23237,-0.89887 1.0584,-1.4627 1.84498,-1.25935z"/><path d="M256.97889,159.46045c-0.23266,0.89878 -1.05883,1.46233 -1.84533,1.25875c-0.7865,-0.20359 -1.23548,-1.09724 -1.00282,-1.99601c0.23265,-0.89878 1.05884,-1.46233 1.84534,-1.25875c0.78649,0.20359 1.23547,1.09724 1.00281,1.99601z"/><path d="M258.50401,161.989c0.034,1.099 0.055,2.186 0.066,3.259c-0.226,0.069 -0.469,0.085 -0.708,0.023c-0.786,-0.204 -1.237,-1.097 -1.004,-1.995c0.214,-0.822 0.925,-1.357 1.646,-1.287z"/><path d="M256.1276,166.92788c0.78703,0.20364 1.23651,1.09734 1.00395,1.99612c-0.23256,0.89878 -1.0591,1.46228 -1.84613,1.25864c-0.78703,-0.20364 -1.23651,-1.09734 -1.00395,-1.99611c0.23256,-0.89878 1.0591,-1.46229 1.84613,-1.25864z"/><path d="M255.04127,173.22233c0.23224,-0.89941 1.05901,-1.46365 1.84666,-1.26027c0.78764,0.20338 1.2379,1.09736 1.00566,1.99677c-0.23224,0.89941 -1.05902,1.46364 -1.84666,1.26026c-0.78764,-0.20338 -1.23789,-1.09735 -1.00566,-1.99676z"/><path d="M258.27302,177.344c-0.072,1.172 -0.154,2.282 -0.243,3.329c-0.078,-0.007 -0.156,-0.013 -0.237,-0.034c-0.784,-0.203 -1.233,-1.097 -0.999,-1.998c0.196,-0.76 0.816,-1.276 1.479,-1.297z"/><path d="M254.38445,182.48076c0.23228,-0.89771 1.0586,-1.46035 1.84563,-1.2567c0.78703,0.20364 1.23674,1.09647 1.00446,1.99417c-0.23228,0.89771 -1.0586,1.46035 -1.84563,1.25671c-0.78703,-0.20364 -1.23674,-1.09647 -1.00445,-1.99418z"/><path d="M257.42302,186.168c-0.152,1.051 -0.307,1.916 -0.456,2.573c-0.329,0.219 -0.721,0.305 -1.105,0.205c-0.785,-0.204 -1.236,-1.098 -1.003,-1.998c0.233,-0.901 1.062,-1.462 1.846,-1.26c0.293,0.074 0.539,0.248 0.718,0.48z"/><path d="M254.76602,190.541c-0.99,0.207 -1.975,0.406 -2.946,0.588c-0.012,-0.2 0,-0.403 0.054,-0.614c0.233,-0.899 1.059,-1.461 1.845,-1.258c0.575,0.148 0.967,0.666 1.047,1.284z"/><path d="M249.12506,189.8053c-0.78543,-0.20323 -1.2335,-1.09702 -1.0008,-1.99633c0.2327,-0.89931 1.05806,-1.46359 1.84348,-1.26036c0.78543,0.20323 1.23349,1.09702 1.00079,1.99633c-0.2327,0.89931 -1.05805,1.46359 -1.84348,1.26036z"/><path d="M245.22145,191.89153c-0.78665,-0.20294 -1.23637,-1.09621 -1.00446,-1.99517c0.23191,-0.89896 1.05763,-1.4632 1.84429,-1.26026c0.78665,0.20294 1.23637,1.09621 1.00446,1.99517c-0.23191,0.89896 -1.05763,1.4632 -1.84429,1.26026z"/><path d="M240.36195,191.37963c-0.78764,-0.20354 -1.23774,-1.09765 -1.00532,-1.99706c0.23242,-0.89941 1.05935,-1.46351 1.847,-1.25997c0.78764,0.20354 1.23774,1.09766 1.00532,1.99706c-0.23242,0.89941 -1.05935,1.4635 -1.84699,1.25996z"/><path d="M238.51902,192.642c-0.017,0.064 -0.044,0.123 -0.066,0.182c-0.931,0.059 -1.842,0.098 -2.746,0.128c-0.108,-0.316 -0.131,-0.681 -0.037,-1.045c0.233,-0.899 1.059,-1.465 1.846,-1.261c0.786,0.203 1.235,1.095 1.003,1.996z"/><path d="M232.53144,192.70937c-0.78596,-0.20329 -1.23466,-1.09669 -1.00218,-1.99546c0.23247,-0.89878 1.05807,-1.46258 1.84403,-1.25929c0.78596,0.20329 1.23466,1.09669 1.00218,1.99546c-0.23247,0.89878 -1.05807,1.46258 -1.84403,1.25929z"/><path d="M228.79402,192.483c-0.041,0.159 -0.107,0.303 -0.18,0.438c-0.902,-0.043 -1.784,-0.107 -2.652,-0.179c-0.092,-0.306 -0.107,-0.649 -0.016,-0.995c0.232,-0.901 1.058,-1.465 1.845,-1.262c0.786,0.203 1.234,1.098 1.003,1.998z"/><path d="M222.69536,192.14849c-0.7865,-0.20359 -1.23525,-1.0981 -1.00232,-1.99795c0.23293,-0.89984 1.05934,-1.46427 1.84584,-1.26068c0.7865,0.20359 1.23524,1.0981 1.00231,1.99795c-0.23293,0.89984 -1.05934,1.46427 -1.84583,1.26068z"/><path d="M217.92166,190.04154c-0.78596,-0.20345 -1.2345,-1.09699 -1.00185,-1.99576c0.23265,-0.89878 1.0584,-1.46245 1.84436,-1.25899c0.78596,0.20345 1.23451,1.09699 1.00185,1.99576c-0.23265,0.89878 -1.05841,1.46245 -1.84437,1.25899z"/><path d="M212.50502,190.079c0.468,0.16 0.951,0.311 1.44,0.46c-0.231,0.069 -0.474,0.087 -0.716,0.024c-0.295,-0.075 -0.542,-0.249 -0.724,-0.484z"/><path d="M213.94502,190.54c-0.488,-0.149 -0.971,-0.3 -1.44,-0.46c-0.303,-0.39 -0.424,-0.95 -0.278,-1.512c0.233,-0.9 1.058,-1.462 1.844,-1.26c0.787,0.203 1.235,1.098 1.003,1.995c-0.161,0.624 -0.609,1.078 -1.129,1.237z"/><path d="M209.23802,188.787c-0.001,0.007 -0.005,0.012 -0.006,0.019c-0.919,-0.407 -1.783,-0.845 -2.599,-1.301c0.362,-0.564 0.993,-0.871 1.603,-0.714c0.786,0.204 1.236,1.098 1.002,1.996z"/><path d="M206.14098,186.49569c-0.78657,-0.20318 -1.236,-1.09657 -1.0038,-1.99544c0.23219,-0.89887 1.05806,-1.46283 1.84464,-1.25965c0.78657,0.20318 1.236,1.09657 1.0038,1.99544c-0.23219,0.89887 -1.05806,1.46284 -1.84464,1.25965z"/><path d="M203.19968,182.76365c-0.7865,-0.20351 -1.23555,-1.09709 -1.00298,-1.99586c0.23256,-0.89878 1.05867,-1.4624 1.84517,-1.25889c0.7865,0.20351 1.23555,1.09708 1.00298,1.99586c-0.23256,0.89878 -1.05867,1.4624 -1.84517,1.25889z"/><path d="M198.77602,179.995c-0.399,-0.783 -0.697,-1.588 -0.908,-2.408c0.342,-0.654 1.024,-1.025 1.683,-0.854c0.787,0.203 1.236,1.096 1.004,1.994c-0.226,0.873 -1.013,1.422 -1.779,1.268z"/><path d="M201.27602,183.48c-0.612,-0.641 -1.134,-1.307 -1.601,-1.988c0.194,-0.039 0.395,-0.039 0.595,0.014c0.78,0.201 1.226,1.082 1.006,1.974z"/></g><path d="M202.86802,171.881c2.463,-4.307 14.569,-0.943 14.569,-0.943c0,0 -2.888,-6.452 -0.359,-9.52c2.53,-3.068 9.086,0.117 9.086,0.117c0,0 -7.375,-31.848 8.908,-38.626c7.328,-3.051 13.963,8.009 17.214,22.811c4.089,18.612 3.701,42.354 2.445,42.559c-34.205,5.536 -59.398,-3.214 -51.863,-16.398z" fill="#dbdadf"/><path d="M244.72302,133.027c1.978,5.502 -9.858,9.778 -11.103,6.604c-1.341,-3.454 -3.419,-11.936 2.468,-14.237c5.979,-2.337 7.454,4.354 8.635,7.633z" fill="#5ff5fe"/><path d="M235.95202,145.966c0.829,-3.119 6.116,-7.173 10.246,-3.557c4.424,3.874 5.073,20.662 5.423,45.312c-5.19,-13.499 -18.969,-30.707 -15.669,-41.755z" fill="#5ff5fe"/><path d="M228.24902,136.278c4.229,-2.505 6.699,26.539 12.314,39.653c-12.953,-7.819 -17.367,-36.663 -12.314,-39.653z" fill="#d40000"/><path d="M241.28602,176.488c2.619,-2.027 4.449,7.976 7.367,10.961c-6.848,-2.887 -10.487,-8.543 -7.367,-10.961z" fill="#4b00ff"/><path d="M224.41502,172.461c-2.405,0.394 -4.406,-0.741 -5.821,-3.122c-1.208,-2.028 -0.428,-5.445 1.433,-6.461c2.419,-1.319 5.841,0.623 6.842,4.105c0.759,2.645 -0.727,5.195 -2.454,5.478z" fill="#00ae00"/><path d="M226.27702,172.855c5.312,-6.442 8.068,8.663 17.947,14.937c-8.033,-0.837 -23.009,-8.806 -17.947,-14.937z" fill="#8900ff"/><path d="M216.07902,180.385c2.855,-8.744 13.1,5.994 22.482,7.125c-7.494,1.219 -25.097,0.882 -22.482,-7.125z" fill="#ffd100"/><path d="M204.74402,173.857c1.27,-2.964 7.342,-2.69 9.11,-1.241c3.531,2.931 -0.713,10.891 -4.864,9.16c-3.918,-1.631 -6.16,-3.452 -4.246,-7.919z" fill="#4b00ff"/></g><g><path d="M253.5528,199.09116c-3.18548,2.10073 -4.17304,5.14117 -7.57382,6.63111c-3.07409,1.34566 -6.43375,0.21531 -7.98126,-3.17053c-1.48621,-3.24454 -1.18119,-6.60794 0.89561,-9.41887c2.62703,-3.55703 5.21144,-4.44442 8.87762,-6.24611c3.39929,-1.65815 5.43572,-2.33023 9.04134,-3.26622c3.33873,-0.86571 7.28899,-0.07326 8.14423,3.8441c0.81487,3.67739 -0.26465,7.78464 -3.25799,9.22749c-2.84981,1.36585 -5.37591,0.5749 -8.14573,2.39901z" fill="#5ff5fe"/><path d="M258.93768,184.46159c-0.51808,3.99362 0.72965,6.40086 2.6203,9.75977c0.34688,0.61452 -0.43435,1.22754 -0.77974,0.61153c-1.97812,-3.51442 -2.64347,-6.24087 -2.10147,-10.4199c0.02691,-0.20708 0.28633,-0.15924 0.26091,0.04859z" fill="#3b2763"/><path d="M252.83436,185.63307c-0.81444,2.42891 -0.59741,4.48755 0.13241,6.50562c0.55708,1.54042 1.41294,3.05721 2.33687,4.697c0.32371,0.5734 -0.40594,1.14381 -0.73114,0.57116c-2.22707,-3.95176 -3.42545,-7.3944 -1.92728,-11.86125c0.05009,-0.14952 0.23998,-0.06055 0.18914,0.08747z" fill="#3b2763"/><path d="M246.16811,189.53548c-0.6033,4.28294 0.48219,7.68297 3.36864,10.23748c0.53154,0.47173 -0.06728,1.41294 -0.59957,0.94196c-3.13913,-2.77879 -3.9682,-6.62962 -3.31257,-11.28635c0.06205,-0.42762 0.60405,-0.31997 0.5435,0.10691z" fill="#3b2763"/><path d="M238.64961,196.35275c0.85524,4.03549 3.72225,6.09285 7.41758,7.17237c0.47472,0.14055 0.29605,0.98009 -0.17419,0.83879c-3.88223,-1.13185 -7.12901,-3.18548 -7.68073,-7.81903c-0.09195,-0.76927 0.23923,-1.12437 0.43734,-0.19213z" fill="#3b2763"/></g><g><path d="M192.52902,182.508c1.994,-7.701 13.292,-5.656 13.292,-5.656c0,0 -4.577,-5.915 -2.833,-9.77c1.744,-3.856 9.151,-2.314 9.151,-2.314c0,0 -14.671,-29.415 -1.089,-42.42c12.737,-12.196 25.337,1.822 33.337,20.567c8.696,20.375 12.213,46.209 11.11,46.792c-39.436,20.822 -67.762,11.311 -62.968,-7.199z" fill="#5ff5fe"/><g fill="#ffffff"><path d="M214.31802,119.791c-0.497,0.308 -0.995,0.658 -1.494,1.043c0.24,-0.622 0.768,-1.056 1.385,-1.056c0.037,0 0.072,0.01 0.109,0.013z"/><path d="M212.68402,121.578c0,-0.266 0.052,-0.516 0.14,-0.744c0.498,-0.385 0.996,-0.735 1.494,-1.043c0.791,0.066 1.416,0.837 1.416,1.787c0,0.994 -0.683,1.8 -1.525,1.8c-0.842,0 -1.525,-0.806 -1.525,-1.8z"/><path d="M211.15702,126.462c0,-0.99356 0.68321,-1.799 1.526,-1.799c0.84278,0 1.526,0.80544 1.526,1.799c0,0.99356 -0.68322,1.799 -1.526,1.799c-0.84278,0 -1.526,-0.80544 -1.526,-1.799z"/><path d="M207.34502,128.648c0,-0.99411 0.68277,-1.8 1.525,-1.8c0.84223,0 1.525,0.80589 1.525,1.8c0,0.99411 -0.68277,1.8 -1.525,1.8c-0.84223,0 -1.525,-0.80589 -1.525,-1.8z"/><path d="M208.43502,133.918c0,-0.99411 0.68277,-1.8 1.525,-1.8c0.84223,0 1.525,0.80589 1.525,1.8c0,0.99411 -0.68277,1.8 -1.525,1.8c-0.84223,0 -1.525,-0.80588 -1.525,-1.8z"/><path d="M205.91002,145.333c-0.192,-1.17 -0.346,-2.355 -0.453,-3.544c0.083,-0.016 0.167,-0.03 0.254,-0.03c0.842,0 1.525,0.805 1.525,1.799c0,0.914 -0.579,1.659 -1.326,1.775z"/><path d="M207.67202,146.772c0,-0.99411 0.68277,-1.8 1.525,-1.8c0.84223,0 1.525,0.80588 1.525,1.8c0,0.99411 -0.68277,1.8 -1.525,1.8c-0.84223,0 -1.525,-0.80589 -1.525,-1.8z"/><path d="M208.54302,154.484c-0.156,0 -0.304,-0.035 -0.446,-0.087c-0.275,-0.881 -0.546,-1.794 -0.803,-2.741c0.275,-0.465 0.731,-0.771 1.249,-0.771c0.842,0 1.525,0.806 1.525,1.8c0,0.994 -0.683,1.8 -1.525,1.799z"/><path d="M211.48502,161.169c0,-0.99411 0.68276,-1.8 1.525,-1.8c0.84223,0 1.525,0.80589 1.525,1.8c0,0.99411 -0.68277,1.8 -1.525,1.8c-0.84223,0 -1.525,-0.80588 -1.525,-1.8z"/><path d="M211.48502,155.899c0,-0.99411 0.68276,-1.8 1.525,-1.8c0.84223,0 1.525,0.80589 1.525,1.8c0,0.99411 -0.68277,1.8 -1.525,1.8c-0.84223,0 -1.525,-0.80589 -1.525,-1.8z"/><path d="M211.15702,166.954c0,-0.99411 0.68321,-1.8 1.526,-1.8c0.84278,0 1.526,0.80589 1.526,1.8c0,0.99411 -0.68322,1.8 -1.526,1.8c-0.84278,0 -1.526,-0.80588 -1.526,-1.8z"/><path d="M204.51302,166.183c0,-0.314 0.074,-0.605 0.194,-0.862c0.632,-0.34 1.35,-0.56 2.095,-0.688c0.453,0.312 0.761,0.886 0.761,1.55c0,0.995 -0.683,1.801 -1.525,1.801c-0.842,0 -1.525,-0.806 -1.525,-1.801z"/><path d="M204.51302,171.839c0,-0.99466 0.68277,-1.801 1.525,-1.801c0.84223,0 1.525,0.80633 1.525,1.801c0,0.99466 -0.68276,1.801 -1.525,1.801c-0.84223,0 -1.525,-0.80633 -1.525,-1.801z"/><path d="M207.45502,177.494c0,-0.99411 0.68232,-1.8 1.524,-1.8c0.84168,0 1.524,0.80589 1.524,1.8c0,0.99411 -0.68232,1.8 -1.524,1.8c-0.84168,0 -1.524,-0.80589 -1.524,-1.8z"/><path d="M201.57002,177.751c0,-0.432 0.134,-0.822 0.348,-1.132c0.913,-0.03 1.738,0.003 2.393,0.055c0.192,0.301 0.31,0.671 0.31,1.077c0,0.994 -0.683,1.8 -1.525,1.8c-0.842,0 -1.525,-0.806 -1.526,-1.8z"/><path d="M197.54002,180.708c0,-0.99411 0.68277,-1.8 1.525,-1.8c0.84223,0 1.525,0.80589 1.525,1.8c0,0.99411 -0.68277,1.8 -1.525,1.8c-0.84223,0 -1.525,-0.80589 -1.525,-1.8z"/><path d="M193.35702,180.531c-0.337,0.553 -0.609,1.181 -0.802,1.893c-0.014,-0.099 -0.026,-0.199 -0.026,-0.303c0,-0.695 0.338,-1.291 0.828,-1.59z"/><path d="M192.55402,182.424c0.193,-0.712 0.465,-1.34 0.802,-1.893c0.21,-0.128 0.445,-0.208 0.698,-0.208c0.842,0 1.525,0.805 1.525,1.798c0,0.993 -0.683,1.798 -1.525,1.798c-0.754,0 -1.377,-0.648 -1.5,-1.495z"/><path d="M194.16302,187.777c0,-0.99356 0.68276,-1.799 1.525,-1.799c0.84223,0 1.525,0.80544 1.525,1.799c0,0.99356 -0.68277,1.799 -1.525,1.799c-0.84223,0 -1.525,-0.80544 -1.525,-1.799z"/><path d="M205.82002,138.289c0,-0.99411 0.68277,-1.8 1.525,-1.8c0.84223,0 1.525,0.80588 1.525,1.8c0,0.99411 -0.68277,1.8 -1.525,1.8c-0.84223,0 -1.525,-0.80589 -1.525,-1.8z"/><path d="M217.15002,123.634c0,-0.99411 0.68277,-1.8 1.525,-1.8c0.84223,0 1.525,0.80589 1.525,1.8c0,0.99411 -0.68276,1.8 -1.525,1.8c-0.84223,0 -1.525,-0.80589 -1.525,-1.8z"/><path d="M221.07202,120.164c0,-0.99411 0.68277,-1.8 1.525,-1.8c0.84223,0 1.525,0.80589 1.525,1.8c0,0.99411 -0.68277,1.8 -1.525,1.8c-0.84223,0 -1.525,-0.80589 -1.525,-1.8z"/><path d="M223.46902,125.819c0,-0.99356 0.68277,-1.799 1.525,-1.799c0.84223,0 1.525,0.80544 1.525,1.799c0,0.99356 -0.68277,1.799 -1.525,1.799c-0.84223,0 -1.525,-0.80544 -1.525,-1.799z"/><path d="M228.80802,124.791c0,-0.99411 0.68277,-1.8 1.525,-1.8c0.84223,0 1.525,0.80589 1.525,1.8c0,0.99411 -0.68277,1.8 -1.525,1.8c-0.84223,0 -1.525,-0.80589 -1.525,-1.8z"/><path d="M231.31302,129.933c0,-0.99411 0.68277,-1.8 1.525,-1.8c0.84223,0 1.525,0.80588 1.525,1.8c0,0.99411 -0.68277,1.8 -1.525,1.8c-0.84223,0 -1.525,-0.80589 -1.525,-1.8z"/><path d="M235.45302,132.631c0,-0.99301 0.68277,-1.798 1.525,-1.798c0.84223,0 1.525,0.80499 1.525,1.798c0,0.99301 -0.68276,1.798 -1.525,1.798c-0.84223,0 -1.525,-0.80499 -1.525,-1.798z"/><path d="M235.56202,137.259c0,-0.99356 0.68276,-1.799 1.525,-1.799c0.84223,0 1.525,0.80544 1.525,1.799c0,0.99356 -0.68277,1.799 -1.525,1.799c-0.84223,0 -1.525,-0.80544 -1.525,-1.799z"/><path d="M239.37802,140.859c0,-0.99411 0.68143,-1.8 1.522,-1.8c0.84058,0 1.522,0.80589 1.522,1.8c0,0.99411 -0.68142,1.8 -1.522,1.8c-0.84058,0 -1.522,-0.80588 -1.522,-1.8z"/><path d="M244.11402,142.29c0.09,0.208 0.183,0.415 0.273,0.625c0.365,0.855 0.716,1.722 1.063,2.594c-0.219,0.144 -0.468,0.233 -0.737,0.233c-0.841,0 -1.525,-0.805 -1.525,-1.799c0,-0.742 0.381,-1.379 0.926,-1.653z"/><path d="M240.68202,150.114c0,-0.99411 0.68277,-1.8 1.525,-1.8c0.84223,0 1.525,0.80589 1.525,1.8c0,0.99411 -0.68277,1.8 -1.525,1.8c-0.84223,0 -1.525,-0.80588 -1.525,-1.8z"/><path d="M244.38702,152.685c0,-0.99411 0.68232,-1.8 1.524,-1.8c0.84168,0 1.524,0.80589 1.524,1.8c0,0.99411 -0.68232,1.8 -1.524,1.8c-0.84168,0 -1.524,-0.80589 -1.524,-1.8z"/><path d="M245.03902,157.699c0,-0.99411 0.68277,-1.8 1.525,-1.8c0.84223,0 1.525,0.80589 1.525,1.8c0,0.99411 -0.68277,1.8 -1.525,1.8c-0.84223,0 -1.525,-0.80588 -1.525,-1.8z"/><path d="M250.27702,159.909c0.319,1.13 0.625,2.251 0.915,3.36c-0.212,0.131 -0.45,0.213 -0.706,0.213c-0.842,0 -1.525,-0.805 -1.525,-1.799c0,-0.91 0.574,-1.654 1.316,-1.774z"/><path d="M247.65502,167.468c0,-0.99356 0.68277,-1.799 1.525,-1.799c0.84223,0 1.525,0.80544 1.525,1.799c0,0.99356 -0.68277,1.799 -1.525,1.799c-0.84223,0 -1.525,-0.80544 -1.525,-1.799z"/><path d="M249.72502,172.481c0,-0.99411 0.68277,-1.8 1.525,-1.8c0.84223,0 1.525,0.80588 1.525,1.8c0,0.99411 -0.68277,1.8 -1.525,1.8c-0.84223,0 -1.525,-0.80589 -1.525,-1.8z"/><path d="M254.03402,175.884c0.232,1.232 0.438,2.405 0.622,3.513c-0.081,0.015 -0.162,0.029 -0.247,0.029c-0.841,0 -1.524,-0.807 -1.524,-1.802c0,-0.841 0.49,-1.542 1.149,-1.74z"/><path d="M251.46702,182.249c0,-0.99246 0.68276,-1.797 1.525,-1.797c0.84223,0 1.525,0.80454 1.525,1.797c0,0.99246 -0.68277,1.797 -1.525,1.797c-0.84223,0 -1.525,-0.80454 -1.525,-1.797z"/><path d="M255.47402,185.253c0.12,1.131 0.189,2.068 0.21,2.792c-0.275,0.312 -0.646,0.506 -1.057,0.506c-0.841,0 -1.525,-0.807 -1.525,-1.801c0,-0.994 0.683,-1.801 1.525,-1.801c0.313,0 0.604,0.113 0.847,0.304z"/><path d="M253.94102,190.499c-0.941,0.48 -1.876,0.952 -2.803,1.399c-0.066,-0.202 -0.106,-0.42 -0.106,-0.649c0,-0.994 0.683,-1.8 1.525,-1.8c0.615,0 1.142,0.432 1.384,1.05z"/><path d="M246.56502,189.449c0,-0.99411 0.68277,-1.8 1.525,-1.8c0.84223,0 1.525,0.80589 1.525,1.8c0,0.99411 -0.68277,1.8 -1.525,1.8c-0.84223,0 -1.525,-0.80588 -1.525,-1.8z"/><path d="M243.18802,192.663c0,-0.99356 0.68277,-1.799 1.525,-1.799c0.84223,0 1.525,0.80544 1.525,1.799c0,0.99356 -0.68277,1.799 -1.525,1.799c-0.84223,0 -1.525,-0.80544 -1.525,-1.799z"/><path d="M238.17602,193.434c0,-0.99411 0.68322,-1.8 1.526,-1.8c0.84278,0 1.526,0.80589 1.526,1.8c0,0.99411 -0.68322,1.8 -1.526,1.8c-0.84278,0 -1.526,-0.80589 -1.526,-1.8z"/><path d="M238.17602,197.033c0,0.07 -0.011,0.138 -0.018,0.206c-0.919,0.31 -1.824,0.594 -2.724,0.868c-0.191,-0.3 -0.308,-0.67 -0.308,-1.074c0,-0.994 0.683,-1.801 1.525,-1.801c0.842,0 1.525,0.807 1.525,1.801z"/><path d="M230.66002,196.904c0,-0.99411 0.68277,-1.8 1.525,-1.8c0.84223,0 1.525,0.80588 1.525,1.8c0,0.99411 -0.68277,1.8 -1.525,1.8c-0.84223,0 -1.525,-0.80589 -1.525,-1.8z"/><path d="M228.37102,199.477c0,0.175 -0.027,0.341 -0.067,0.501c-0.917,0.197 -1.818,0.369 -2.708,0.526c-0.172,-0.292 -0.275,-0.644 -0.275,-1.027c0,-0.995 0.683,-1.802 1.525,-1.802c0.842,0 1.525,0.806 1.525,1.802z"/><path d="M220.63502,198.962c0,-0.99466 0.68322,-1.801 1.526,-1.801c0.84278,0 1.526,0.80633 1.526,1.801c0,0.99466 -0.68322,1.801 -1.526,1.801c-0.84278,0 -1.526,-0.80634 -1.526,-1.801z"/><path d="M215.29802,198.061c0,-0.99356 0.68277,-1.799 1.525,-1.799c0.84223,0 1.525,0.80544 1.525,1.799c0,0.99356 -0.68277,1.799 -1.525,1.799c-0.84223,0 -1.525,-0.80544 -1.525,-1.799z"/><path d="M211.39502,201.352c0.513,0.04 1.037,0.068 1.566,0.089c-0.213,0.135 -0.454,0.219 -0.713,0.219c-0.316,0 -0.609,-0.113 -0.853,-0.308z"/><path d="M212.96102,201.441c-0.529,-0.022 -1.053,-0.049 -1.566,-0.089c-0.405,-0.323 -0.672,-0.872 -0.672,-1.493c0,-0.994 0.683,-1.799 1.525,-1.799c0.842,0 1.525,0.805 1.525,1.799c0,0.689 -0.331,1.28 -0.812,1.582z"/><path d="M207.78202,200.889c0,0.007 -0.002,0.014 -0.002,0.021c-1.029,-0.177 -2.009,-0.397 -2.947,-0.652c0.216,-0.681 0.77,-1.168 1.423,-1.168c0.842,0 1.525,0.806 1.526,1.799z"/><path d="M202.55202,197.546c0,-0.99356 0.68277,-1.799 1.525,-1.799c0.84223,0 1.525,0.80544 1.525,1.799c0,0.99356 -0.68277,1.799 -1.525,1.799c-0.84223,0 -1.525,-0.80544 -1.525,-1.799z"/><path d="M198.62902,194.462c0,-0.99356 0.68277,-1.799 1.525,-1.799c0.84223,0 1.525,0.80544 1.525,1.799c0,0.99356 -0.68277,1.799 -1.525,1.799c-0.84223,0 -1.525,-0.80544 -1.525,-1.799z"/><path d="M194.99402,194.581c-0.604,-0.705 -1.112,-1.459 -1.537,-2.252c0.174,-0.768 0.762,-1.336 1.468,-1.336c0.842,0 1.525,0.805 1.525,1.798c0,0.965 -0.647,1.746 -1.456,1.79z"/><path d="M198.40902,197.524c-0.78,-0.499 -1.478,-1.05 -2.123,-1.631c0.184,-0.093 0.387,-0.146 0.6,-0.146c0.836,0 1.513,0.794 1.523,1.777z"/></g><path d="M196.99502,185.077c1.353,-5.125 14.381,-4.884 14.381,-4.884c0,0 -4.576,-5.912 -2.833,-9.769c1.743,-3.858 9.152,-2.314 9.152,-2.314c0,0 -15.676,-31.03 -1.09,-42.419c6.563,-5.126 16.097,4.556 23.205,19.024c8.939,18.192 14.715,42.902 13.508,43.449c-32.9,14.91 -60.463,12.597 -56.323,-3.087z" fill="#dbdadf"/><path d="M228.92002,133.59c3.415,5.171 -7.355,12.775 -9.43,9.82c-2.244,-3.219 -6.532,-11.451 -1.22,-15.415c5.396,-4.026 8.614,2.512 10.65,5.595z" fill="#5ff5fe"/><path d="M223.47702,149.349c0.021,-3.453 4.277,-9.073 9.362,-6.433c5.446,2.828 10.459,20.052 17.212,45.504c-8.715,-12.598 -27.018,-26.737 -26.574,-39.071z" fill="#5ff5fe"/><path d="M213.22802,141.374c3.595,-3.729 13.618,25.708 22.66,37.792c-15.034,-4.629 -26.956,-33.338 -22.66,-37.792z" fill="#5ff5fe"/><path d="M236.76002,179.55c2.102,-2.802 6.538,7.074 10.241,9.386c-7.626,-1.159 -12.747,-6.043 -10.241,-9.386z" fill="#5ff5fe"/><path d="M218.77602,179.901c-2.312,1.053 -4.615,0.414 -6.655,-1.674c-1.739,-1.779 -1.843,-5.53 -0.239,-7.081c2.086,-2.015 6.025,-0.92 7.935,2.421c1.449,2.536 0.619,5.577 -1.041,6.334z" fill="#5ff5fe"/><path d="M220.74702,179.81c3.66,-8.101 10.349,6.813 21.898,10.667c-8.282,1.287 -25.386,-2.956 -21.898,-10.667z" fill="#5ff5fe"/><path d="M212.46602,190.35c0.594,-9.83 14.707,2.698 24.419,1.353c-7.206,3.274 -24.965,7.643 -24.419,-1.353z" fill="#5ff5fe"/><path d="M199.39102,186.621c0.506,-3.413 6.673,-4.756 8.824,-3.729c4.305,2.09 2.113,11.48 -2.504,10.797c-4.358,-0.641 -7.082,-1.925 -6.32,-7.068z" fill="#5ff5fe"/></g></g></g></svg>